<svg width="48" height="48" xmlns="http://www.w3.org/2000/svg">

 <g>
  <title>background</title>
  <rect fill="none" id="canvas_background" height="402" width="582" y="-1" x="-1"/>
 </g>
 <g>
  <title>Layer 1</title>
  <path fill="#17b890" id="svg_3" d="m44,48l-40,0c-2.206,0 -4,-1.794 -4,-4l0,-30c0,-2.206 1.794,-4 4,-4l20,0c0.552,0 1,0.448 1,1s-0.448,1 -1,1l-20,0c-1.103,0 -2,0.897 -2,2l0,30c0,1.103 0.897,2 2,2l40,0c1.103,0 2,-0.897 2,-2l0,-30c0,-1.103 -0.897,-2 -2,-2c-0.552,0 -1,-0.448 -1,-1s0.448,-1 1,-1c2.206,0 4,1.794 4,4l0,30c0,2.206 -1.794,4 -4,4z"/>
  <path fill="#17b890" id="svg_5" d="m44,44l-34,0l0,-30l10,0c0.552,0 1,0.448 1,1s-0.448,1 -1,1l-8,0l0,26l30,0l0,-26l-2,0c-0.552,0 -1,-0.448 -1,-1s0.448,-1 1,-1l4,0l0,30z"/>
  <path fill="#17b890" id="svg_7" d="m8,42l-8,0l0,-26l8,0l0,26zm-6,-2l4,0l0,-22l-4,0l0,22z"/>
  <path fill="#17b890" id="svg_9" d="m17.44,27.56l2.639,-8.297l17.992,-17.991c1.511,-1.512 4.146,-1.512 5.657,0c1.56,1.56 1.56,4.097 0,5.656l-17.991,17.992l-8.297,2.64zm4.398,-7.227l-1.32,4.148l4.148,-1.32l17.648,-17.646c0.78,-0.78 0.78,-2.048 0,-2.828c-0.756,-0.756 -2.073,-0.756 -2.829,0l-17.647,17.646z"/>
  <rect fill="#17b890" id="svg_11" y="24" x="1" width="6" height="2"/>
  <rect fill="#17b890" id="svg_13" y="32" x="1" width="6" height="2"/>
  <path fill="#17b890" id="svg_15" d="m41.606,8.636c-0.256,0 -0.512,-0.098 -0.707,-0.293l-4.243,-4.243c-0.391,-0.391 -0.391,-1.023 0,-1.414s1.023,-0.391 1.414,0l4.243,4.243c0.391,0.391 0.391,1.023 0,1.414c-0.195,0.196 -0.451,0.293 -0.707,0.293z"/>
  <path fill="#17b890" id="svg_17" d="m35.95,14.293c-0.256,0 -0.512,-0.098 -0.707,-0.293l-4.243,-4.243c-0.391,-0.391 -0.391,-1.023 0,-1.414s1.023,-0.391 1.414,0l4.243,4.243c0.391,0.391 0.391,1.023 0,1.414c-0.196,0.195 -0.451,0.293 -0.707,0.293z"/>
  <path fill="#17b890" id="svg_19" d="m25.202,25.041c-0.256,0 -0.512,-0.098 -0.707,-0.293l-4.243,-4.243c-0.391,-0.391 -0.391,-1.023 0,-1.414s1.023,-0.391 1.414,0l4.243,4.243c0.391,0.391 0.391,1.023 0,1.414c-0.196,0.195 -0.451,0.293 -0.707,0.293z"/>
  <path fill="#17b890" id="svg_21" d="m17,29c-0.256,0 -0.512,-0.098 -0.707,-0.293c-0.391,-0.391 -0.391,-1.023 0,-1.414l1.979,-1.979c0.391,-0.391 1.023,-0.391 1.414,0s0.391,1.023 0,1.414l-1.979,1.979c-0.195,0.195 -0.451,0.293 -0.707,0.293z"/>
 </g>
</svg>