<svg width="30" height="30" xmlns="http://www.w3.org/2000/svg">

 <g>
  <title>background</title>
  <rect fill="none" id="canvas_background" height="402" width="582" y="-1" x="-1"/>
 </g>
 <g>
  <title>Layer 1</title>
  <path fill="#293347" id="svg_1" d="m18,19l0,-2c0.45,-0.223 1.737,-1.755 1.872,-2.952c0.354,-0.027 0.91,-0.352 1.074,-1.635c0.088,-0.689 -0.262,-1.076 -0.474,-1.198c0,0 0.528,-1.003 0.528,-2.214c0,-2.428 -0.953,-4.5 -3,-4.5c0,0 -0.711,-1.5 -3,-1.5c-4.242,0 -6,2.721 -6,6c0,1.104 0.528,2.214 0.528,2.214c-0.212,0.122 -0.562,0.51 -0.474,1.198c0.164,1.283 0.72,1.608 1.074,1.635c0.135,1.197 1.422,2.729 1.872,2.952l0,2c-1,3 -9,1 -9,8l24,0c0,-7 -8,-5 -9,-8z"/>
 </g>
</svg>