<svg width="32" height="32" xmlns="http://www.w3.org/2000/svg">

 <g>
  <title>background</title>
  <rect fill="none" id="canvas_background" height="402" width="582" y="-1" x="-1"/>
 </g>
 <g>
  <title>Layer 1</title>
  <rect id="svg_1" width="32" height="32" fill="none"/>
  <path fill="#17b890" id="svg_2" d="m28,10l-10,0l0,2l10,0l0,-2zm-14,0l-10,0l0,10l10,0l0,-10zm18,-10l-32,0l0,28l15.518,0c1.614,2.411 4.361,3.999 7.482,4c4.971,-0.002 8.998,-4.029 9,-9c0,-0.362 -0.027,-0.718 -0.069,-1.069l0.069,0.069l0,-22zm-22,2l12,0l0,2l-12,0l0,-2zm-4,0l2,0l0,2l-2,0l0,-2zm-4,0l2,0l0,2l-2,0l0,-2zm21,27.883c-3.801,-0.009 -6.876,-3.084 -6.885,-6.883c0.009,-3.801 3.084,-6.876 6.885,-6.885c3.799,0.009 6.874,3.084 6.883,6.885c-0.009,3.799 -3.084,6.874 -6.883,6.883zm6.999,-12.535c-0.57,-0.706 -1.243,-1.324 -1.999,-1.83l0,-1.518l-4.99,0c-0.003,0 -0.007,0 -0.01,0s-0.007,0 -0.01,0l-4.99,0l0,1.516c-2.412,1.614 -4,4.361 -4,7.483c0,1.054 0.19,2.061 0.523,3l-12.523,0l0,-19.999l27.999,0l0,11.348zm0.001,-13.348l-4,0l0,-2l4,0l0,2z"/>
  <path fill="#17b890" id="svg_3" d="m28,24l0,-2.001l-1.663,0c-0.063,-0.212 -0.145,-0.413 -0.245,-0.606l1.187,-1.187l-1.416,-1.415l-1.165,1.166c-0.22,-0.123 -0.452,-0.221 -0.697,-0.294l0,-1.663l-2,0l0,1.662c-0.229,0.068 -0.446,0.158 -0.652,0.27l-1.141,-1.14l-1.415,1.415l1.14,1.14c-0.112,0.207 -0.202,0.424 -0.271,0.653l-1.662,0l0,2l1.662,0c0.073,0.246 0.172,0.479 0.295,0.698l-1.165,1.163l1.413,1.416l1.188,-1.187c0.192,0.101 0.394,0.182 0.605,0.245l0,1.665l2.002,0l0,-1.665c0.229,-0.068 0.445,-0.158 0.651,-0.27l1.212,1.212l1.414,-1.416l-1.212,-1.21c0.111,-0.206 0.201,-0.423 0.27,-0.651l1.665,0zm-5.001,0.499c-0.829,-0.002 -1.498,-0.671 -1.501,-1.5c0.003,-0.829 0.672,-1.498 1.501,-1.501c0.829,0.003 1.498,0.672 1.5,1.501c-0.002,0.829 -0.671,1.498 -1.5,1.5z"/>
 </g>
</svg>